<?xml version="1.0" standalone="no"?>
<!DOCTYPE svg PUBLIC "-//W3C//DTD SVG 20010904//EN"
 "http://www.w3.org/TR/2001/REC-SVG-20010904/DTD/svg10.dtd">
<svg version="1.0" xmlns="http://www.w3.org/2000/svg"
 width="877.000000pt" height="877.000000pt" viewBox="0 0 877.000000 877.000000"
 preserveAspectRatio="xMidYMid meet">

<g transform="translate(0.000000,877.000000) scale(0.100000,-0.100000)"
fill="#000000" stroke="none">
<path d="M0 4385 l0 -4385 4385 0 4385 0 0 4385 0 4385 -4385 0 -4385 0 0
-4385z m4915 3935 c592 -35 1173 -120 1676 -245 203 -51 401 -110 438 -130
l26 -14 -27 -1 c-15 0 -213 31 -440 69 -792 133 -1316 184 -2023 198 -810 15
-1583 -55 -2580 -232 -196 -34 -286 -44 -255 -26 32 19 236 81 406 125 469
119 1080 214 1574 246 91 6 185 12 210 13 114 8 843 6 995 -3z m-885 -745 l0
-405 80 0 c58 0 80 -4 80 -12 -1 -7 -9 -47 -18 -88 l-18 -75 -99 -6 c-55 -4
-142 -7 -192 -8 l-93 -1 0 495 0 494 98 4 c53 1 112 4 130 5 l32 2 0 -405z
m666 391 c11 -28 233 -981 229 -984 -2 -2 -62 -1 -134 3 l-131 8 -8 31 -8 31
-87 3 -86 3 -7 -36 -6 -35 -134 0 c-101 0 -134 3 -134 13 0 6 43 189 94 405
l93 392 -44 0 c-23 0 -43 3 -43 8 1 9 18 86 31 135 l10 37 180 0 c143 0 181
-3 185 -14z m467 -12 l77 -6 0 -189 0 -189 40 0 40 0 0 185 0 185 38 -1 c20 0
82 -6 137 -12 l100 -12 3 -165 c3 -197 0 -220 -39 -264 -25 -29 -27 -36 -14
-43 8 -5 24 -26 35 -48 18 -36 20 -59 20 -252 l0 -213 -27 0 c-15 0 -78 5
-140 11 l-113 12 0 218 0 219 -40 0 -40 0 0 -216 0 -216 -92 7 c-51 3 -112 8
-135 11 l-43 5 0 220 c0 228 3 249 44 281 l21 17 -21 23 c-41 45 -44 61 -44
257 l0 191 58 -5 c31 -3 92 -7 135 -11z m-1556 -481 c62 -257 113 -475 113
-484 0 -15 -17 -18 -122 -25 -68 -5 -127 -9 -132 -9 -6 0 -14 15 -18 34 l-9
34 -52 -7 c-29 -3 -66 -6 -84 -6 -29 0 -33 -4 -39 -36 -4 -19 -12 -37 -18 -40
-16 -6 -250 -31 -255 -28 -2 2 37 183 88 403 50 219 91 404 91 411 0 8 -13 11
-40 8 -23 -2 -40 1 -40 7 1 18 38 166 43 171 6 6 350 42 356 37 3 -2 56 -214
118 -470z m2218 413 l79 -11 50 -232 c27 -128 53 -233 56 -233 3 0 32 93 65
208 32 114 61 210 64 214 7 8 222 -27 252 -40 14 -6 -2 -71 -116 -470 -73
-254 -134 -465 -137 -467 -5 -5 -258 32 -265 39 -1 1 17 70 41 153 l43 152
-51 6 c-61 9 -101 28 -120 58 -13 19 -146 599 -146 635 0 13 8 13 185 -12z
m-2930 -86 c9 -36 18 -72 21 -81 4 -13 -19 -20 -141 -39 l-145 -22 0 -315 0
-314 23 3 c22 3 22 4 25 213 l2 211 118 17 c64 9 125 17 135 17 16 0 17 -19
17 -250 0 -264 -4 -295 -47 -333 -15 -13 -79 -28 -229 -52 -244 -41 -258 -41
-284 -15 -19 19 -20 33 -20 460 l0 440 29 32 c29 32 32 33 247 69 121 20 222
33 226 30 3 -3 14 -35 23 -71z m-1185 -310 c0 -43 -4 -70 -11 -70 -34 0 -163
-92 -244 -174 -99 -99 -154 -190 -195 -321 -28 -89 -38 -273 -20 -382 27 -175
46 -215 857 -1836 l784 -1569 -58 6 c-32 4 -65 9 -73 11 -19 6 -1539 3051
-1576 3155 -81 234 -87 487 -16 690 24 69 65 151 105 210 46 68 165 187 230
232 46 31 201 117 215 118 1 0 2 -31 2 -70z m5514 -12 c245 -149 400 -390 436
-677 19 -146 -4 -326 -61 -489 -24 -65 -1565 -3170 -1585 -3191 -7 -7 -128
-20 -134 -15 -2 3 357 728 798 1612 631 1263 808 1626 827 1694 116 414 -30
792 -377 983 l-68 37 0 64 0 64 57 -25 c31 -14 79 -39 107 -57z m-2373 -698
c637 -32 1257 -123 1808 -265 196 -51 391 -113 391 -126 0 -10 -7 -9 -360 51
-363 62 -573 94 -780 119 -868 107 -1661 125 -2510 55 -412 -33 -724 -74
-1289 -170 -211 -35 -386 -62 -388 -60 -26 25 444 154 857 235 404 80 869 136
1315 160 224 12 725 12 956 1z m-37 -310 c48 -11 84 -36 114 -80 20 -30 22
-44 22 -170 0 -76 3 -151 6 -168 6 -30 6 -30 64 -25 76 7 124 -10 174 -62 31
-31 57 -47 101 -60 91 -26 169 -70 210 -117 21 -25 63 -102 99 -181 l61 -138
142 -53 c149 -57 376 -162 530 -248 l92 -50 -47 -94 c-26 -52 -50 -94 -54 -94
-4 0 -31 14 -60 31 -108 64 -496 249 -522 249 -1 0 4 -42 10 -92 7 -51 18
-185 25 -297 l13 -203 61 -67 c75 -82 185 -210 185 -216 0 -11 -34 -75 -40
-75 -4 0 -30 30 -59 66 -29 36 -92 109 -140 163 l-88 98 -7 124 c-11 192 -36
447 -51 519 -8 36 -25 97 -38 135 -38 110 -146 348 -170 374 -31 33 -123 77
-202 97 -58 15 -70 22 -90 54 -13 20 -37 43 -54 50 -44 18 -137 7 -174 -20
-16 -12 -31 -19 -34 -16 -10 10 -22 172 -22 306 -1 141 -9 163 -65 178 -42 12
-815 -4 -911 -18 -134 -21 -240 -92 -291 -196 -24 -49 -26 -62 -20 -119 l7
-65 -41 -16 c-51 -21 -156 -133 -194 -208 -22 -43 -30 -76 -34 -131 -7 -108 3
-143 50 -187 l40 -37 -26 -34 c-32 -42 -40 -86 -61 -352 -22 -284 -23 -286
-48 -293 -12 -3 -57 -23 -100 -45 -100 -50 -192 -142 -267 -266 -77 -128 -108
-171 -123 -171 -7 0 -21 16 -30 35 -16 33 -16 36 1 54 9 11 42 61 72 113 78
131 207 261 313 313 54 27 79 45 81 59 3 12 12 118 21 236 9 118 19 219 22
224 9 14 -38 0 -187 -56 -179 -67 -348 -143 -504 -228 -70 -39 -131 -70 -135
-70 -4 0 -27 41 -51 91 l-45 90 23 17 c42 33 317 171 457 230 77 33 203 81
280 106 l140 47 -3 83 c-6 144 51 262 191 392 62 59 64 62 69 120 7 75 36 132
101 202 61 64 115 97 199 123 76 24 150 29 548 38 173 4 340 8 370 9 30 1 73
-3 94 -8z m885 -70 c13 0 15 -17 1 -25 -5 -3 -7 -12 -4 -19 4 -9 -4 -13 -25
-12 -21 1 -31 6 -31 17 0 8 -5 20 -12 27 -9 9 -8 12 5 12 10 0 20 7 24 16 6
16 7 16 18 0 7 -9 17 -16 24 -16z m-910 -94 c6 -8 14 -36 18 -63 l5 -50 -38
-6 c-22 -4 -275 -10 -564 -13 l-525 -7 40 42 c22 23 62 53 89 66 48 24 57 25
275 26 125 1 289 5 366 8 251 13 321 12 334 -3z m-2319 -96 c24 0 26 -13 5
-30 -9 -8 -12 -22 -8 -42 6 -29 5 -30 -16 -18 -13 6 -34 9 -47 6 -20 -5 -24
-3 -24 18 0 13 -7 29 -15 36 -22 18 -18 30 8 30 16 0 28 9 36 27 l13 28 14
-28 c9 -15 23 -27 34 -27z m2338 -172 c1 -65 0 -118 -4 -118 -4 0 -21 9 -39
20 -17 11 -63 31 -101 46 -190 71 -407 75 -742 13 -115 -22 -127 -27 -253
-118 -18 -13 -19 -10 -19 103 0 109 1 116 23 131 38 25 237 36 497 27 199 -7
480 -1 570 12 66 9 65 12 68 -116z m1867 42 c28 0 32 -12 10 -30 -8 -7 -15
-26 -15 -42 0 -25 -3 -29 -17 -23 -23 10 -43 10 -67 0 -17 -7 -18 -5 -12 20 5
21 2 33 -15 51 l-22 24 30 0 c23 0 33 6 42 27 l13 28 14 -28 c10 -18 23 -27
39 -27z m-610 -40 c17 0 20 -16 4 -25 -6 -4 -8 -13 -6 -19 3 -8 -5 -13 -23
-13 -17 0 -31 7 -34 16 -3 9 -9 22 -12 29 -3 7 1 12 10 12 9 0 19 7 23 16 5
15 7 15 15 0 5 -9 16 -16 23 -16z m-1500 -54 c151 -41 302 -146 326 -227 7
-21 9 -42 5 -46 -4 -4 -32 20 -64 54 -72 78 -163 136 -266 171 -80 27 -84 27
-336 27 -243 0 -258 -1 -324 -24 -38 -13 -104 -48 -148 -77 -43 -29 -78 -49
-78 -44 0 20 82 99 123 118 134 63 599 92 762 48z m-57 -67 c218 -56 392 -225
447 -435 17 -64 20 -217 5 -278 -16 -71 -61 -109 -107 -92 -12 5 -7 15 25 50
45 49 56 91 55 211 -1 83 -15 120 -89 231 -91 137 -205 226 -359 281 -73 25
-92 28 -220 28 -132 -1 -146 -3 -234 -33 -51 -18 -153 -64 -226 -103 -75 -39
-136 -65 -139 -60 -20 32 161 166 264 195 134 38 440 41 578 5z m-900 -25 c21
-15 22 -20 16 -92 -4 -42 -13 -89 -21 -105 l-14 -27 -30 35 c-19 21 -47 39
-75 47 l-45 13 36 43 c32 36 42 42 76 42 39 0 40 0 25 22 -9 12 -16 26 -16 30
0 13 24 9 48 -8z m1452 -59 c0 -41 -24 -61 -88 -71 l-42 -7 6 34 c11 61 29 79
79 79 45 0 45 0 45 -35z m-2116 -30 c3 -8 13 -15 23 -15 13 0 14 -3 5 -12 -7
-7 -12 -19 -12 -27 0 -11 -10 -16 -30 -16 -20 0 -30 5 -30 16 0 8 -5 20 -12
27 -9 9 -8 12 5 12 10 0 20 7 23 15 4 8 10 15 14 15 4 0 10 -7 14 -15z m2195
-84 c35 -111 35 -111 22 -111 -15 0 -49 61 -61 112 -11 41 -8 98 4 98 3 0 18
-45 35 -99z m-694 49 c81 -25 226 -98 270 -135 l30 -26 -31 6 c-30 6 -32 5
-38 -35 -9 -58 -38 -84 -88 -77 -49 7 -88 32 -88 58 0 11 7 36 15 56 22 52 20
58 -27 79 -33 15 -64 19 -138 18 -186 -2 -377 -73 -594 -221 -43 -30 -82 -52
-86 -51 -16 6 32 107 70 151 22 24 62 59 89 76 64 41 199 96 287 115 92 21
236 15 329 -14z m812 -11 c48 -18 92 -35 97 -40 6 -5 5 -24 -3 -49 -13 -44
-21 -47 -86 -29 -51 14 -82 43 -90 83 -4 17 -9 39 -11 49 -7 22 -10 22 93 -14z
m-200 -51 c34 -32 28 -44 -8 -14 -38 32 -44 32 -74 1 -29 -28 -31 -42 -9 -73
19 -27 51 -28 84 -2 36 28 45 25 64 -25 17 -44 15 -76 -6 -102 -19 -24 -30
-13 -14 12 21 32 20 44 -6 72 -26 28 -32 28 -74 2 l-34 -21 20 -28 c29 -41 24
-48 -11 -14 -38 36 -59 81 -59 131 0 73 75 110 127 61z m-1607 5 c0 -5 -7 -17
-15 -27 -22 -28 -18 -53 9 -71 29 -19 54 -10 62 22 5 18 -1 32 -22 55 l-29 30
25 -7 c14 -4 33 -14 42 -22 20 -18 32 -81 23 -123 l-7 -30 -25 20 c-32 25 -65
26 -86 2 -16 -17 -15 -20 12 -46 l30 -28 38 23 38 23 -16 -24 c-23 -35 -87
-40 -115 -9 -27 30 -27 168 1 198 18 21 35 27 35 14z m1978 -78 c24 -50 13
-60 -28 -27 -18 14 -22 25 -16 45 9 38 19 34 44 -18z m954 -5 c20 0 20 -1 3
-20 -10 -12 -15 -28 -12 -40 4 -17 2 -20 -11 -15 -22 9 -33 9 -56 0 -17 -7
-18 -5 -13 15 4 16 0 31 -10 42 -15 17 -15 18 5 18 12 0 26 9 33 21 l11 21 14
-21 c9 -12 25 -21 36 -21z m-2746 13 c-3 -10 -10 -38 -17 -63 -10 -37 -13 -42
-20 -25 -14 36 -10 83 9 94 25 15 34 13 28 -6z m1691 -57 c51 -18 104 -41 117
-49 44 -29 121 -222 151 -378 17 -91 52 -556 42 -566 -4 -3 -56 27 -117 67
-119 79 -190 109 -256 110 l-41 0 -9 188 c-9 202 -9 230 1 337 6 62 4 77 -19
129 -14 32 -26 66 -26 76 0 28 42 120 54 120 6 0 53 -15 103 -34z m-1729 -318
c-3 -78 -4 -82 -18 -58 -20 35 -20 211 0 265 l15 40 3 -82 c2 -46 2 -120 0
-165z m1579 132 c19 -87 19 -123 -3 -153 -24 -33 -26 -33 -61 -3 -25 22 -28
31 -31 104 -4 79 -4 80 24 96 45 24 57 17 71 -44z m-139 25 c7 -14 12 -43 12
-63 1 -64 17 -110 54 -153 31 -36 36 -50 36 -91 0 -47 -27 -119 -50 -133 -5
-3 -15 -16 -21 -27 -11 -21 -11 -21 17 1 38 30 59 64 74 117 7 24 16 44 21 44
4 0 9 -75 11 -167 3 -186 -2 -203 -60 -203 -45 0 -146 56 -193 107 l-43 47 53
12 c29 6 57 16 64 23 6 6 13 37 15 69 4 55 2 60 -23 81 l-28 21 12 153 c13
160 18 187 30 187 4 0 13 -11 19 -25z m-1564 -137 c-8 -100 -4 -105 103 -137
102 -30 123 -58 123 -158 0 -66 -3 -79 -26 -106 -24 -29 -25 -35 -19 -95 l7
-65 -139 8 c-76 4 -141 9 -145 12 -28 16 16 481 54 576 9 22 31 45 46 47 2 0
0 -37 -4 -82z m1334 27 c78 -19 93 -34 84 -81 -2 -13 -61 -90 -131 -171 -175
-203 -213 -223 -471 -244 -202 -17 -370 9 -370 56 0 7 19 50 42 96 91 183 254
294 519 354 81 18 229 14 327 -10z m130 -302 l3 -63 -49 0 c-59 0 -72 12 -72
67 0 50 19 64 80 60 l35 -2 3 -62z m52 -3 c0 -27 -4 -50 -10 -50 -5 0 -10 23
-10 50 0 28 5 50 10 50 6 0 10 -22 10 -50z m-212 -41 c-9 -89 -59 -132 -201
-173 -123 -36 -278 -48 -492 -41 -204 8 -238 17 -299 85 -40 44 -66 114 -48
132 7 7 16 -1 30 -29 55 -108 158 -152 372 -160 311 -12 489 47 591 195 19 28
38 48 43 45 4 -3 6 -27 4 -54z m72 -58 c0 -19 -82 -111 -126 -142 -74 -51
-127 -66 -311 -88 -206 -25 -272 -26 -435 -5 -131 16 -192 38 -257 92 -31 26
-33 32 -27 65 6 34 9 36 29 26 11 -7 42 -33 67 -58 29 -30 61 -51 88 -59 73
-22 340 -34 471 -22 204 19 278 45 410 144 74 56 91 64 91 47z m20 -91 c0 -32
-6 -47 -27 -66 -69 -64 -330 -158 -512 -184 -103 -16 -303 -8 -386 15 -73 20
-216 89 -241 116 -18 19 -17 19 31 -1 120 -51 207 -65 420 -64 380 0 587 58
676 189 13 19 27 35 32 35 4 0 7 -18 7 -40z m167 -72 c38 -25 41 -31 33 -53
l-9 -24 60 31 c79 41 176 45 252 11 58 -27 417 -291 417 -307 0 -6 -34 -24
-76 -41 -113 -45 -112 -64 1 -25 108 37 127 28 189 -98 20 -40 41 -70 46 -67
15 9 12 -7 -8 -40 -14 -22 -35 -35 -75 -49 -32 -11 -57 -23 -57 -28 0 -5 8 -7
18 -4 9 2 32 8 50 11 l33 7 -50 -99 c-46 -90 -56 -103 -130 -160 -90 -71 -181
-185 -232 -290 -18 -37 -34 -70 -36 -72 -6 -9 -52 42 -63 70 -9 21 -9 37 -1
60 19 56 159 273 216 336 30 34 55 64 55 68 0 3 -26 -14 -58 -39 -32 -25 -62
-46 -66 -46 -5 0 -42 29 -82 65 -54 48 -71 70 -67 83 4 9 29 43 56 75 28 31
48 59 46 62 -10 10 -76 -45 -104 -86 -16 -24 -31 -46 -32 -48 -2 -3 -15 6 -29
20 -24 23 -25 31 -9 74 5 13 -6 7 -35 -20 -39 -36 -100 -142 -100 -172 0 -7
-4 -13 -10 -13 -15 0 -12 39 19 222 20 126 24 168 15 172 -8 3 -17 -29 -30
-105 -11 -67 -23 -109 -30 -109 -7 0 -19 34 -29 78 -9 42 -28 122 -41 177
l-24 100 4 -90 c3 -51 20 -161 40 -252 39 -174 41 -193 26 -193 -29 0 -169
176 -193 244 -3 6 -8 8 -12 4 -4 -4 9 -40 29 -81 28 -58 52 -90 118 -152 97
-93 109 -107 117 -149 7 -31 8 -30 95 86 l88 118 47 -52 c25 -28 56 -65 69
-83 l23 -32 -58 -101 c-36 -64 -63 -101 -72 -100 -9 2 -22 33 -35 81 -22 85
-41 104 -31 30 25 -179 44 -242 111 -377 l67 -137 -16 -34 c-9 -19 -21 -35
-27 -35 -46 0 -160 102 -220 196 -34 55 -36 64 -14 64 11 0 7 7 -13 24 -51 43
-89 56 -158 56 -61 0 -66 2 -75 26 -6 14 -10 80 -10 147 0 89 -6 142 -20 197
-11 41 -20 94 -20 117 0 52 -13 88 -35 97 -9 3 -48 9 -86 12 -78 8 -94 0 -105
-49 -3 -18 -11 -38 -17 -45 -21 -27 -27 15 -27 210 0 146 -3 199 -12 205 -7 4
-116 13 -243 19 -205 11 -233 10 -260 -4 -23 -12 -55 -15 -141 -13 -99 2 -113
0 -137 -19 -30 -23 -35 -61 -13 -79 8 -7 70 -16 137 -21 80 -7 128 -15 137
-23 11 -12 11 -32 3 -110 -6 -53 -11 -130 -11 -171 0 -62 3 -76 18 -80 30 -9
491 -28 502 -21 6 4 15 18 21 32 l9 25 47 -35 c65 -48 68 -62 11 -54 -92 13
-167 -27 -204 -107 -43 -92 -28 -164 53 -255 l38 -43 168 -9 c92 -4 172 -11
177 -14 6 -3 10 -44 10 -91 0 -80 -1 -84 -22 -84 -13 0 -174 -9 -358 -19 -402
-22 -774 -17 -825 11 -38 21 -78 63 -100 108 -25 48 -32 20 -10 -36 17 -45 81
-104 112 -104 8 0 13 -7 11 -16 -5 -27 -148 -65 -238 -64 -126 0 -192 25 -204
76 -4 14 -5 28 -3 30 2 2 50 13 106 23 56 10 104 21 108 24 12 13 -45 18 -112
10 -39 -5 -78 -7 -87 -5 -24 5 -53 88 -53 153 1 48 9 73 55 165 51 102 57 109
87 112 29 3 37 -3 79 -57 26 -34 49 -59 52 -57 10 10 -42 97 -75 126 l-35 32
51 108 c91 191 128 323 136 484 l5 91 -29 -140 c-32 -157 -69 -272 -114 -358
-16 -31 -31 -56 -33 -55 -1 2 -7 46 -13 98 -18 159 -64 430 -73 430 -10 0 -11
12 12 -180 11 -91 20 -172 20 -180 0 -8 -67 52 -148 133 -81 81 -151 145 -155
141 -4 -4 46 -62 112 -129 83 -84 128 -139 148 -180 57 -112 52 -116 -33 -35
-44 42 -101 92 -129 111 -60 43 -145 93 -145 86 0 -3 28 -27 63 -53 113 -86
184 -153 217 -204 18 -28 30 -53 27 -57 -4 -3 -44 30 -90 73 -84 79 -241 184
-255 169 -4 -4 2 -12 12 -19 53 -32 243 -186 255 -208 12 -21 12 -30 2 -57 -8
-17 -17 -31 -22 -31 -5 0 -81 45 -169 100 -89 55 -166 100 -171 100 -25 0 0
-22 103 -90 249 -167 258 -178 220 -262 -41 -89 -43 -89 -92 -7 -26 44 -77
107 -126 155 -75 74 -89 94 -153 222 -39 78 -71 144 -71 147 0 3 9 5 19 5 34
0 111 103 145 193 40 107 157 208 319 275 161 67 219 65 287 -9 44 -48 59 -51
31 -5 -12 18 -21 36 -21 40 0 3 17 6 38 6 26 0 54 -10 88 -32 151 -96 250
-123 454 -121 234 1 401 39 588 135 53 26 99 48 104 48 4 0 5 -26 2 -57 -10
-87 10 -54 35 60 l23 98 36 -22 c20 -13 56 -35 79 -51z m-425 -361 c4 -7 8
-107 8 -223 0 -165 -3 -214 -13 -223 -10 -8 -55 -8 -163 -1 -82 5 -184 10
-226 10 l-78 0 0 48 c0 62 20 360 26 391 l5 24 217 -7 c148 -5 219 -11 224
-19z m-492 -13 c28 -27 -7 -36 -124 -30 -116 6 -138 14 -115 42 11 14 27 15
119 9 70 -4 110 -12 120 -21z m681 -299 c25 -4 52 -10 59 -15 14 -9 28 -81 29
-149 1 -40 -1 -43 -22 -37 -13 3 -49 17 -81 32 -64 29 -76 48 -76 123 0 52 6
63 29 57 9 -3 37 -8 62 -11z m523 -24 c12 -13 16 -28 12 -43 -8 -28 -111 -141
-125 -137 -5 2 5 50 25 112 38 115 42 119 88 68z m-654 -211 c0 -5 -12 -16
-27 -24 -76 -39 -100 -110 -65 -189 37 -84 138 -114 213 -64 73 49 75 142 4
224 -19 23 -35 44 -35 47 0 8 109 8 149 0 l31 -6 0 -169 0 -169 -122 0 c-151
1 -191 9 -235 52 -54 52 -66 83 -60 151 6 72 27 104 87 135 49 24 60 27 60 12z
m80 -55 c37 -19 60 -62 60 -112 0 -49 -21 -78 -65 -93 -49 -16 -89 -5 -125 36
-84 96 17 227 130 169z m953 -129 c-37 -75 -73 -136 -80 -136 -6 0 -24 11 -40
24 l-27 24 29 43 c33 47 175 192 182 186 2 -3 -26 -66 -64 -141z m-2669 95
c-6 -6 -24 19 -24 34 1 6 7 1 15 -9 8 -11 12 -22 9 -25z m1871 -622 c0 -91 -1
-94 -24 -97 l-24 -4 8 94 c7 100 11 111 28 105 8 -2 12 -35 12 -98z m-75 1 c0
-49 -4 -90 -9 -90 -15 0 -81 112 -81 137 0 26 24 42 63 43 l27 0 0 -90z
m-1082 -22 c-3 -45 -6 -53 -23 -53 -26 0 -32 47 -10 81 25 39 36 29 33 -28z
m1655 41 c40 -11 44 -17 25 -41 -12 -13 -20 -13 -83 7 -39 13 -63 25 -55 28
54 20 63 20 113 6z m-1739 -35 c17 -45 9 -54 -51 -54 -63 0 -88 10 -81 31 4
11 50 26 119 38 4 0 10 -6 13 -15z m1732 -34 c8 0 14 -4 14 -10 0 -17 -47 -11
-54 6 -5 12 -2 15 10 10 8 -3 22 -6 30 -6z m-966 -40 c18 -6 7 -8 -40 -8 -47
0 -58 2 -40 8 14 4 32 8 40 8 8 0 26 -4 40 -8z m158 -7 c-15 -2 -42 -2 -60 0
-18 2 -6 4 27 4 33 0 48 -2 33 -4z m-1801 -217 c2 -2 12 -38 22 -81 l19 -77
-56 7 c-30 4 -61 9 -69 12 -10 4 -13 -13 -13 -80 0 -95 -4 -90 83 -102 l47 -6
0 -80 0 -81 -27 6 c-16 3 -45 8 -65 12 l-38 6 0 -110 0 -110 48 -7 c26 -3 57
-9 68 -12 l22 -5 -18 -70 c-10 -38 -20 -72 -22 -74 -3 -2 -76 9 -164 24 l-159
28 -3 430 -2 431 161 -28 c89 -16 164 -30 166 -33z m3725 17 c16 -15 18 -35
18 -229 l0 -212 -26 -31 -26 -31 55 -152 c38 -106 51 -155 43 -159 -18 -11
-215 -43 -221 -37 -4 3 -30 73 -60 154 l-54 149 -3 -165 -3 -164 -80 -12 c-44
-7 -95 -15 -112 -18 l-33 -5 0 430 c0 236 1 429 3 429 89 18 413 68 441 69 24
1 47 -5 58 -16z m-3502 -46 l85 -12 3 -160 c3 -167 5 -175 50 -175 22 0 22 1
22 161 l0 162 78 -7 c42 -4 94 -10 115 -13 l37 -6 0 -168 c0 -166 0 -168 -26
-198 l-26 -31 26 -31 26 -31 0 -200 0 -201 -37 6 c-21 3 -73 9 -115 13 l-78 7
0 188 c0 145 -3 189 -12 189 -7 0 -23 3 -35 6 l-23 6 0 -186 c0 -214 14 -193
-117 -175 -139 18 -123 -10 -123 213 0 193 0 195 25 224 l25 30 -25 38 c-24
36 -25 42 -25 205 l0 168 33 -5 c17 -3 70 -11 117 -17z m2944 -82 c21 -85 21
-83 -19 -90 -19 -3 -51 -7 -70 -11 l-36 -5 3 -82 c2 -47 7 -81 13 -81 6 1 36
4 68 8 l57 6 0 -79 0 -79 -67 -8 -68 -9 -3 -109 -3 -108 71 7 c38 4 70 3 70
-1 1 -30 -36 -154 -45 -154 -6 0 -65 -7 -130 -15 -66 -8 -137 -15 -158 -15
l-37 0 2 427 3 428 140 16 c212 25 190 30 209 -46z m-2204 4 c79 -6 154 -16
165 -22 42 -22 44 -33 45 -259 l0 -217 -26 -20 c-24 -19 -36 -21 -108 -16 -45
3 -98 8 -118 11 l-38 4 0 -165 0 -165 -32 0 c-18 0 -70 3 -115 7 l-83 6 0 430
0 430 83 -7 c45 -3 147 -11 227 -17z m1735 -14 c25 -24 25 -24 25 -234 l0
-209 -26 -32 -26 -31 55 -159 55 -158 -76 -7 c-42 -4 -97 -7 -121 -8 l-43 -2
-57 160 -56 160 -3 -167 -2 -168 -48 0 c-26 0 -77 -3 -114 -7 l-68 -6 0 431 0
430 93 6 c50 4 142 10 202 15 183 14 183 14 210 -14z m-1257 -362 l2 -353 70
0 c70 0 70 0 64 -25 -3 -13 -11 -48 -18 -77 l-11 -53 -48 0 c-26 1 -101 2
-167 3 l-120 2 0 430 0 431 113 -3 112 -3 3 -352z m699 322 l23 -26 0 -369 0
-370 -28 -31 -28 -32 -215 -5 -215 -5 -29 26 -30 25 -3 375 -3 375 26 31 26
31 182 3 c258 5 267 4 294 -28z m-1232 -1171 c11 -3 45 -44 75 -91 66 -102
162 -203 248 -262 225 -152 474 -159 709 -20 76 46 208 177 271 270 54 82 67
89 154 89 l40 0 -32 -57 c-144 -257 -358 -438 -590 -500 -89 -23 -281 -23
-370 1 -151 40 -332 159 -441 289 -51 61 -109 146 -163 240 l-27 47 53 0 c29
0 62 -3 73 -6z"/>
<path d="M4537 7332 c-9 -42 -17 -80 -17 -84 0 -5 18 -8 41 -8 34 0 39 3 35
18 -3 9 -12 46 -20 81 -8 34 -16 65 -18 66 -2 2 -11 -31 -21 -73z"/>
<path d="M3335 7280 c-10 -44 -16 -82 -14 -85 3 -2 21 -2 41 1 l35 6 -19 77
c-11 42 -21 77 -22 79 -2 1 -11 -34 -21 -78z"/>
<path d="M4672 6112 c-18 -14 -23 -26 -20 -52 5 -58 52 -65 112 -17 l30 24
-44 32 c-50 36 -48 36 -78 13z"/>
<path d="M3680 6081 c-26 -49 3 -101 55 -101 59 0 83 49 49 98 -20 30 -88 31
-104 3z"/>
<path d="M3863 4208 c-13 -15 -84 -174 -149 -331 -44 -107 -48 -139 -18 -151
20 -8 373 23 402 34 14 6 22 18 22 32 -1 13 -47 113 -103 223 -79 154 -107
201 -123 203 -11 2 -26 -3 -31 -10z m199 -390 c2 -9 -47 -18 -172 -34 -96 -12
-176 -21 -177 -20 -1 1 37 96 84 210 l87 208 88 -176 c48 -96 89 -181 90 -188z"/>
<path d="M4209 3556 c-4 -5 -299 -34 -384 -38 l-50 -3 2 -105 c2 -156 -44
-143 488 -138 496 5 498 5 503 70 4 45 -24 68 -81 68 -20 0 -65 11 -98 25 -48
20 -84 27 -175 32 l-114 6 -10 38 c-6 20 -17 40 -26 43 -18 7 -49 8 -55 2z
m41 -80 c0 -42 25 -51 154 -56 101 -4 129 -9 170 -29 27 -13 71 -26 98 -29 30
-3 47 -9 45 -16 -6 -17 -101 -23 -508 -30 -304 -6 -378 -5 -386 6 -8 10 -18
91 -18 149 0 3 432 34 438 31 4 -2 7 -14 7 -26z"/>
<path d="M4323 4370 c-88 -21 -133 -79 -133 -170 1 -131 90 -215 204 -190 104
22 166 95 166 194 0 54 -16 90 -57 127 -52 49 -98 59 -180 39z m134 -57 c13
-8 32 -31 44 -50 25 -41 22 -101 -8 -142 -24 -32 -98 -71 -136 -71 -91 0 -158
131 -112 220 33 63 146 86 212 43z"/>
<path d="M4659 3741 c-43 -43 -40 -95 8 -120 32 -16 44 -14 90 16 l42 27 -15
35 c-32 77 -75 91 -125 42z m74 -39 c13 -14 14 -21 5 -30 -29 -29 -83 3 -58
33 17 20 33 19 53 -3z"/>
<path d="M6263 2663 c-22 -4 -23 -8 -23 -109 0 -112 0 -113 58 -98 21 6 22 11
22 110 0 113 2 108 -57 97z"/>
<path d="M3672 2454 l3 -109 38 -3 37 -3 0 105 c0 105 0 106 -24 106 -13 0
-32 3 -41 6 -14 6 -15 -6 -13 -102z"/>
<path d="M5217 2543 c-4 -3 -7 -53 -7 -111 0 -103 0 -104 23 -98 12 3 32 6 45
6 21 0 22 3 22 105 l0 105 -38 0 c-21 0 -42 -3 -45 -7z"/>
<path d="M4630 2250 l0 -270 40 0 40 0 0 270 0 270 -40 0 -40 0 0 -270z"/>
</g>
</svg>
